<svg xmlns="http://www.w3.org/2000/svg" width="32" height="32" viewBox="0 0 32 32">
  <path fill="#ff6b6b" d="M16 2C8.268 2 2 8.268 2 16s6.268 14 14 14 14-6.268 14-14S23.732 2 16 2zm0 25.6C9.148 27.6 3.6 22.052 3.6 15.2c0-6.852 5.548-12.4 12.4-12.4 6.852 0 12.4 5.548 12.4 12.4 0 6.852-5.548 12.4-12.4 12.4z"/>
  <path fill="#ff6b6b" d="M14 8c-1.105 0-2 .895-2 2s.895 2 2 2 2-.895 2-2-.895-2-2-2zm4 12c-1.105 0-2 .895-2 2s.895 2 2 2 2-.895 2-2-.895-2-2-2zm0-6c-3.314 0-6 2.686-6 6h2c0-2.21 1.79-4 4-4s4 1.79 4 4h2c0-3.314-2.686-6-6-6z"/>
</svg>
